<?xml version="1.0" encoding="UTF-8" standalone="no"?>
<!-- Created with sK1/UniConvertor (http://sk1project.org/) -->

<svg
   xmlns:dc="http://purl.org/dc/elements/1.1/"
   xmlns:cc="http://creativecommons.org/ns#"
   xmlns:rdf="http://www.w3.org/1999/02/22-rdf-syntax-ns#"
   xmlns:svg="http://www.w3.org/2000/svg"
   xmlns="http://www.w3.org/2000/svg"
   xmlns:sodipodi="http://sodipodi.sourceforge.net/DTD/sodipodi-0.dtd"
   xmlns:inkscape="http://www.inkscape.org/namespaces/inkscape"
   width="240"
   height="240"
   viewBox="0 0 192.00001 191.99999"
   id="svg2"
   version="1.1"
   inkscape:version="0.91pre3 r13670"
   sodipodi:docname="logo.svg"
   inkscape:export-filename="C:\Users\Optim\Desktop\optimorm.png"
   inkscape:export-xdpi="90"
   inkscape:export-ydpi="90"
   style="fill-rule:evenodd">
  <metadata
     id="metadata38">
    <rdf:RDF>
      <cc:Work
         rdf:about="">
        <dc:format>image/svg+xml</dc:format>
        <dc:type
           rdf:resource="http://purl.org/dc/dcmitype/StillImage" />
        <dc:title></dc:title>
      </cc:Work>
    </rdf:RDF>
  </metadata>
  <defs
     id="defs36" />
  <sodipodi:namedview
     pagecolor="#ffffff"
     bordercolor="#666666"
     borderopacity="1"
     objecttolerance="10"
     gridtolerance="10"
     guidetolerance="10"
     inkscape:pageopacity="0"
     inkscape:pageshadow="2"
     inkscape:window-width="1920"
     inkscape:window-height="1018"
     id="namedview34"
     showgrid="false"
     inkscape:zoom="1.2927291"
     inkscape:cx="395.81665"
     inkscape:cy="38.398594"
     inkscape:window-x="-8"
     inkscape:window-y="-8"
     inkscape:window-maximized="1"
     inkscape:current-layer="svg2" />
  <flowRoot
     xml:space="preserve"
     id="flowRoot2994"
     style="font-style:normal;font-weight:normal;font-size:144px;line-height:120.00000477%;font-family:Sans;letter-spacing:0px;word-spacing:0px;fill:#000000;fill-opacity:1;stroke:none"
     transform="translate(0,-649.89009)"><flowRegion
       id="flowRegion2996"><rect
         id="rect2998"
         width="672.21887"
         height="220.72859"
         x="21.181026"
         y="484.93399"
         style="font-size:144px;line-height:120.00000477%" /></flowRegion><flowPara
       id="flowPara3000" /></flowRoot>  <flowRoot
     style="font-style:normal;font-weight:normal;font-size:36px;line-height:125%;font-family:Sans;letter-spacing:0px;word-spacing:0px;fill:#000000;fill-opacity:1;stroke:none"
     id="flowRoot3094"
     xml:space="preserve"
     transform="translate(37.520308,-344.13212)"><flowRegion
       id="flowRegion3096"><rect
         style="font-size:36px"
         y="744.14655"
         x="82.768997"
         height="79.615898"
         width="613.27887"
         id="rect3098" /></flowRegion><flowPara
       id="flowPara3100" /></flowRoot>  <rect
     y="0.8849116"
     x="0.88494527"
     height="190.23016"
     width="190.23016"
     id="rect4180"
     style="opacity:1;fill:#f9f9f9;fill-opacity:1;fill-rule:evenodd;stroke:none;stroke-width:1.76986182;stroke-linecap:butt;stroke-linejoin:miter;stroke-miterlimit:4;stroke-dasharray:none;stroke-dashoffset:0;stroke-opacity:1"
     inkscape:export-filename="C:\Users\Optim\Desktop\optimorm.png"
     inkscape:export-xdpi="90"
     inkscape:export-ydpi="90" />
  <g
     id="g3827"
     transform="matrix(0.16697222,0,0,0.16697222,44.442822,53.801433)"
     inkscape:export-filename="C:\Users\Optim\Desktop\optimorm.png"
     inkscape:export-xdpi="90"
     inkscape:export-ydpi="90">
    <path
       inkscape:connector-curvature="0"
       id="path3008"
       style="font-style:normal;font-variant:normal;font-weight:normal;font-stretch:normal;font-size:72px;line-height:125%;font-family:Acens;-inkscape-font-specification:Acens;letter-spacing:0px;word-spacing:0px;fill:#000000;fill-opacity:1;stroke:none"
       d="m 328.38624,174.90107 c -1.9e-4,-10.29558 -0.30409,-18.92016 -0.9118,-25.87377 -0.60799,-6.95345 -1.36898,-12.30122 -2.28289,-16.04334 -1.6706,-5.34971 -4.21682,-9.82931 -7.6387,-13.43881 -3.42219,-3.60928 -7.56691,-6.35049 -12.43417,-8.22366 -9.73032,-3.87656 -25.69442,-5.81489 -47.89233,-5.81502 l -22.11914,0 c -20.22142,1.3e-4 -34.58932,1.26923 -43.10376,3.8073 l -0.22965,0 c -5.47531,1.60385 -10.07475,3.84314 -13.79837,6.71788 -3.72368,2.87498 -6.72693,6.31808 -9.00982,10.32931 -2.12981,4.01145 -3.61231,9.16029 -4.44752,15.44653 -0.8352,6.28643 -1.25282,13.64089 -1.25279,22.06341 -3e-5,10.2957 0.26577,18.92029 0.79691,25.87377 0.53127,6.95358 1.40477,12.36868 2.62047,16.24533 3.49859,10.43033 10.2661,17.58381 20.30258,21.46048 8.96918,3.7461 25.00983,5.61915 48.12198,5.61915 l 22.11914,0 c 10.03632,0 18.552,-0.33462 25.547,-1.00386 6.99475,-0.66923 12.69619,-1.60576 17.1044,-2.80957 l 0,-0.19587 c 5.16884,-1.33847 9.65345,-3.44514 13.45382,-6.32001 3.80006,-2.87485 6.8416,-6.31795 9.12468,-10.32931 2.12962,-4.14598 3.65039,-9.36113 4.56231,-15.64546 0.91161,-6.28426 1.36749,-13.57241 1.36768,-21.86447 z m -18.24933,0 c -1.6e-4,6.81893 -0.30409,12.70229 -0.9118,17.65012 -0.60799,4.9479 -1.74713,8.82559 -3.41738,11.63309 -2.28305,5.34985 -7.14815,8.76132 -14.5953,10.23444 -5.93011,1.33441 -17.33535,2.00161 -34.21576,2.00159 l -21.88946,0 c -17.02904,2e-5 -28.50852,-0.66718 -34.43848,-2.00159 -7.29884,-1.47312 -12.31706,-4.88459 -15.05464,-10.23444 -2.89079,-5.88027 -4.33617,-15.64133 -4.33614,-29.28321 l 0,-11.03017 c -3e-5,-13.63767 1.44535,-23.39873 4.33614,-29.28321 2.58446,-5.48438 7.52612,-8.96115 14.82496,-10.43031 6.08308,-1.33837 17.63912,-2.0076 34.66816,-2.00772 l 21.88946,0 c 17.02888,1.2e-4 28.50836,0.66935 34.43848,2.00772 7.4518,1.46916 12.24265,4.94593 14.37258,10.43031 1.67025,2.80762 2.80939,6.68532 3.41738,11.63309 0.60771,4.94795 0.91164,10.83132 0.9118,17.65012 z" />
    <path
       inkscape:connector-curvature="0"
       id="path3010"
       style="font-style:normal;font-variant:normal;font-weight:normal;font-stretch:normal;font-size:72px;line-height:125%;font-family:Acens;-inkscape-font-specification:Acens;letter-spacing:0px;word-spacing:0px;fill:#000000;fill-opacity:1;stroke:none"
       d="m 458.58151,189.94667 0,-23.46819 c -1.3e-4,-14.17225 -3.57296,-25.06979 -10.71853,-32.69266 -7.14579,-7.08809 -16.95253,-10.63219 -29.42026,-10.6323 l -34.20879,0 c -5.77693,1.1e-4 -11.25103,0.8693 -16.42231,2.60758 -5.17138,1.73849 -9.50404,4.41339 -12.99798,8.02472 -3.95333,4.01144 -6.53782,8.32374 -7.75351,12.93689 -1.2157,4.61333 -1.97669,10.52934 -2.2829,17.74805 l 0,109.51824 c -3e-5,1.20377 0.53127,1.80567 1.59384,1.80572 l 12.77175,0 c 1.52191,-5e-5 2.28289,-0.60195 2.28292,-1.80572 l 0,-47.53625 c 5.47522,4.41125 13.07796,6.61688 22.80819,6.61688 l 34.20879,0 c 12.31461,0 22.08307,-3.61041 29.30542,-10.83124 7.22213,-7.22081 10.83324,-17.9847 10.83337,-32.29172 z m -16.64852,0 c -1e-4,17.78378 -8.13411,26.67565 -24.40204,26.67564 l -31.93285,0 c -8.51454,1e-5 -14.74729,-2.17297 -18.69825,-6.51895 -3.95105,-4.34593 -5.92654,-11.06482 -5.92654,-20.15669 l 0,-23.46819 c 0,-8.82652 1.97549,-15.44543 5.92654,-19.85677 3.95096,-4.41116 10.18371,-6.61678 18.69825,-6.61688 l 31.93285,0 c 16.26793,1e-4 24.40194,8.82464 24.40204,26.47365 z" />
    <path
       inkscape:connector-curvature="0"
       id="path3012"
       style="font-style:normal;font-variant:normal;font-weight:normal;font-stretch:normal;font-size:72px;line-height:125%;font-family:Acens;-inkscape-font-specification:Acens;letter-spacing:0px;word-spacing:0px;fill:#000000;fill-opacity:1;stroke:none"
       d="m 565.11251,201.38083 c -0.14859,-0.13463 -0.45251,-0.20197 -0.91177,-0.20199 l -13.90624,0 c -1.22043,3e-5 -1.83059,0.60193 -1.8305,1.80571 -9e-5,4.94585 -1.82363,8.48995 -5.47063,10.6323 -3.03932,1.86899 -6.53559,2.80347 -10.48884,2.80346 l -24.63173,0 c -5.77691,1e-5 -9.95875,-1.83835 -12.54554,-5.51509 -2.58687,-3.6767 -3.88028,-9.32644 -3.88025,-16.94925 l 0,-50.7437 63.40634,0 c 1.52184,9e-5 2.28281,-0.66914 2.28291,-2.00771 l 0,-15.44346 c -10e-5,-1.20371 -0.76107,-1.80561 -2.28291,-1.80572 l -63.40634,0 0,-18.44891 c -3e-5,-1.07311 -0.60788,-1.60972 -1.82354,-1.60985 l -12.99447,0 c -1.36883,1.3e-4 -2.05324,0.53674 -2.05323,1.60985 l 0,18.44891 -8.89498,0 c -1.2157,1.1e-4 -1.82355,0.60201 -1.82354,1.80572 l 0,15.44346 c -1e-5,1.33857 0.60784,2.0078 1.82354,2.00771 l 8.89498,0 c -10e-6,1.87314 -0.0383,4.07978 -0.11482,6.61994 -0.0766,2.54033 -0.26798,5.74879 -0.57421,9.62539 -0.45474,8.42674 -0.6821,14.97833 -0.68208,19.65477 -2e-5,16.31473 2.12744,28.61808 6.38239,36.91007 2.58912,5.61507 6.16428,9.86003 10.72548,12.73489 4.56114,2.87486 10.41456,4.3123 17.56029,4.3123 l 25.31382,0 c 4.25484,0 8.20701,-0.53458 11.85649,-1.60373 3.64932,-1.06914 6.91939,-2.74019 9.81024,-5.01316 3.95322,-3.07684 6.80453,-6.52096 8.55394,-10.33237 1.74919,-3.81136 2.62384,-8.18997 2.62395,-13.13582 -1.1e-4,-0.40396 -0.0767,-0.60595 -0.22969,-0.60598 z" />
    <path
       inkscape:connector-curvature="0"
       id="path3014"
       style="font-style:normal;font-variant:normal;font-weight:normal;font-stretch:normal;font-size:72px;line-height:125%;font-family:Acens;-inkscape-font-specification:Acens;letter-spacing:0px;word-spacing:0px;fill:#000000;fill-opacity:1;stroke:none"
       d="m 581.94895,233.06963 c 0.90943,0 1.36416,-0.60191 1.36417,-1.80572 l 0,-105.90068 c -10e-6,-1.2037 -0.45474,-1.80561 -1.36417,-1.80572 l -10.03644,0 c -1.06258,1.1e-4 -1.59386,0.60202 -1.59386,1.80572 l 0,105.90068 c 0,1.20381 0.53128,1.80572 1.59386,1.80572 z m 0,-133.182307 c 0.90943,1.33e-4 1.36416,-0.669103 1.36417,-2.007712 l 0,-15.24147 c -10e-6,-1.203661 -0.45474,-1.805566 -1.36417,-1.805719 l -10.03644,0 c -1.06258,1.53e-4 -1.59386,0.602058 -1.59386,1.805719 l 0,15.24147 c 0,1.338609 0.53128,2.007845 1.59386,2.007712 z" />
    <path
       inkscape:connector-curvature="0"
       id="path3016"
       style="font-style:normal;font-variant:normal;font-weight:normal;font-stretch:normal;font-size:72px;line-height:125%;font-family:Acens;-inkscape-font-specification:Acens;letter-spacing:0px;word-spacing:0px;fill:#000000;fill-opacity:1;stroke:none"
       d="m 812.1954,231.86378 c 1.21546,0 1.82331,-0.53458 1.82353,-1.60372 l 0,-67.59501 c -2.2e-4,-6.0149 -1.14051,-11.49632 -3.42088,-16.44427 -2.2808,-4.94777 -5.47432,-9.29271 -9.58055,-13.03482 -8.05533,-6.41886 -17.4816,-9.62834 -28.27881,-9.62845 l -33.06734,0 c -4.4082,1.1e-4 -8.36152,0.33371 -11.85998,1.0008 -3.49874,0.6673 -6.61685,1.87009 -9.35435,3.60837 -5.01602,2.40772 -8.96935,6.62106 -11.85998,12.64002 -1.67053,-2.67686 -3.53235,-5.05081 -5.58546,-7.12187 -2.05334,-2.07087 -4.3722,-3.84291 -6.9566,-5.31615 -0.30171,10e-5 -0.45252,-0.0672 -0.45241,-0.202 -2.73773,-1.73828 -5.85469,-2.94107 -9.35087,-3.60837 -3.49637,-0.66709 -7.52742,-1.00069 -12.09314,-1.0008 l -30.33203,0 c -6.83949,1.1e-4 -13.03396,1.13659 -18.58342,3.40944 -5.54954,2.27306 -10.26267,5.41521 -14.1394,9.42645 -3.87679,4.01144 -6.84178,8.72466 -8.89499,14.13968 -2.05323,5.41519 -3.07984,11.33222 -3.07984,17.75111 l 0,61.97587 c 0,1.06914 0.45472,1.60372 1.36418,1.60372 l 15.05466,0 c 1.21566,0 1.82351,-0.53458 1.82354,-1.60372 -3e-5,-2.00363 -0.0754,-4.84483 -0.2262,-8.5236 -0.15084,-3.67875 -0.37936,-8.12366 -0.68557,-13.33476 -0.30162,-5.08454 -0.49071,-9.59882 -0.56725,-13.54287 -0.0766,-3.94397 -0.11485,-7.25241 -0.11485,-9.92532 -3e-5,-7.08815 0.41757,-13.20615 1.25281,-18.35404 0.83518,-5.14775 2.31768,-9.65999 4.44749,-13.53675 2.12975,-4.41525 5.24671,-7.62575 9.35087,-9.63151 4.10408,-2.00558 9.04458,-3.00841 14.82149,-3.00851 l 26.91464,0 c 1.21561,1e-4 2.65982,0.13375 4.33265,0.40093 1.67265,0.26738 3.57391,0.73564 5.70379,1.40479 3.95323,1.2039 8.13391,4.34605 12.54206,9.42645 2.2828,2.67703 3.61334,5.75287 3.99161,9.22752 0.37805,3.4748 0.56714,7.88707 0.56725,13.23682 l 0,56.16085 c -1.1e-4,1.06914 0.68429,1.60372 2.05322,1.60372 l 12.77175,0 c 1.36869,0 2.0531,-0.53458 2.05322,-1.60372 -0.14861,-1.06915 -0.22285,-5.4804 -0.22272,-13.23377 -1.3e-4,-7.75741 -1.3e-4,-18.98957 0,-33.6965 -1.3e-4,-7.62272 0.15184,-13.90804 0.45589,-18.85597 0.30379,-4.94779 1.36752,-9.02748 3.19119,-12.23908 4.86265,-7.88793 13.37714,-11.83194 25.5435,-11.83204 l 26.22559,0 c 5.47507,1e-4 10.18936,0.96927 14.14288,2.90751 3.95313,1.93843 6.99468,4.9806 9.12467,9.12652 4.1016,7.08828 6.1525,17.58591 6.15271,31.49292 -2.1e-4,2.53826 -0.11391,5.74672 -0.34104,9.62539 -0.22756,3.87876 -0.49438,8.49302 -0.80041,13.84281 -0.45494,5.48042 -0.7577,10.12631 -0.90829,13.93768 -0.151,3.8114 -0.22642,6.78623 -0.2262,8.92453 -2.1e-4,1.06914 0.68187,1.60372 2.04626,1.60372 z" />
  </g>
  <g
     id="g3822"
     transform="matrix(0.16697222,0,0,0.16697222,59.13638,42.313739)"
     inkscape:export-filename="C:\Users\Optim\Desktop\optimorm.png"
     inkscape:export-xdpi="90"
     inkscape:export-ydpi="90">
    <path
       inkscape:connector-curvature="0"
       id="path3018"
       style="font-style:normal;font-variant:normal;font-weight:normal;font-stretch:normal;font-size:72px;line-height:125%;font-family:Acens;-inkscape-font-specification:Acens;letter-spacing:0px;word-spacing:0px;fill:#000000;fill-opacity:1;stroke:none"
       d="m 328.38624,425.62022 c -1.9e-4,-10.29558 -0.30409,-18.92016 -0.9118,-25.87378 -0.60799,-6.95345 -1.36898,-12.30122 -2.28289,-16.04333 -1.6706,-5.34971 -4.21682,-9.82931 -7.6387,-13.43881 -3.42219,-3.60928 -7.56691,-6.3505 -12.43417,-8.22367 -9.73032,-3.87655 -25.69442,-5.81489 -47.89233,-5.81502 l -22.11914,0 c -20.22142,1.3e-4 -34.58932,1.26923 -43.10376,3.80731 l -0.22965,0 c -5.47531,1.60385 -10.07475,3.84314 -13.79837,6.71788 -3.72368,2.87498 -6.72693,6.31808 -9.00982,10.32931 -2.12981,4.01145 -3.61231,9.16028 -4.44752,15.44653 -0.8352,6.28642 -1.25282,13.64089 -1.25279,22.06341 -3e-5,10.2957 0.26577,18.92028 0.79691,25.87377 0.53127,6.95357 1.40477,12.36868 2.62047,16.24533 3.49859,10.43032 10.2661,17.58381 20.30258,21.46048 8.96918,3.7461 25.00983,5.61915 48.12198,5.61915 l 22.11914,0 c 10.03632,0 18.552,-0.33463 25.547,-1.00386 6.99475,-0.66924 12.69619,-1.60576 17.1044,-2.80957 l 0,-0.19587 c 5.16884,-1.33847 9.65345,-3.44514 13.45382,-6.32001 3.80006,-2.87485 6.8416,-6.31795 9.12468,-10.32931 2.12962,-4.14598 3.65039,-9.36113 4.56231,-15.64546 0.91161,-6.28426 1.36749,-13.57241 1.36768,-21.86448 z m -18.24933,0 c -1.6e-4,6.81893 -0.30409,12.70229 -0.9118,17.65011 -0.60799,4.94791 -1.74713,8.8256 -3.41738,11.6331 -2.28305,5.34984 -7.14815,8.76132 -14.5953,10.23443 -5.93011,1.33442 -17.33535,2.00161 -34.21576,2.0016 l -21.88946,0 c -17.02904,1e-5 -28.50852,-0.66718 -34.43848,-2.0016 -7.29884,-1.47311 -12.31706,-4.88459 -15.05464,-10.23443 -2.89079,-5.88027 -4.33617,-15.64134 -4.33614,-29.28321 l 0,-11.03017 c -3e-5,-13.63767 1.44535,-23.39873 4.33614,-29.28322 2.58446,-5.48438 7.52612,-8.96114 14.82496,-10.43031 6.08308,-1.33836 17.63912,-2.0076 34.66816,-2.00771 l 21.88946,0 c 17.02888,1.1e-4 28.50836,0.66935 34.43848,2.00771 7.4518,1.46917 12.24265,4.94593 14.37258,10.43031 1.67025,2.80763 2.80939,6.68533 3.41738,11.6331 0.60771,4.94795 0.91164,10.83132 0.9118,17.65012 z" />
    <path
       inkscape:connector-curvature="0"
       id="path3020"
       style="font-style:normal;font-variant:normal;font-weight:normal;font-stretch:normal;font-size:72px;line-height:125%;font-family:Acens;-inkscape-font-specification:Acens;letter-spacing:0px;word-spacing:0px;fill:#000000;fill-opacity:1;stroke:none"
       d="m 502.59706,483.78878 c 1.06705,0 1.60065,-0.60191 1.60082,-1.80572 l 0,-36.10209 c -1.7e-4,-3.74605 -0.26697,-7.29015 -0.80041,-10.6323 -0.53377,-3.34206 -1.48266,-6.28425 -2.84667,-8.82659 -3.19716,-5.74967 -7.53097,-9.69367 -13.00143,-11.83203 3.4938,-2.00356 6.07715,-5.04472 7.75005,-9.12346 1.67257,-4.0786 2.50894,-8.99279 2.50911,-14.74261 -1.7e-4,-22.59888 -16.19162,-33.89837 -48.57441,-33.8985 l -101.26223,0 c -1.36882,1.3e-4 -2.05321,0.66936 -2.05321,2.00771 l 0,123.14987 c 0,1.20381 0.68439,1.80572 2.05321,1.80572 l 14.5953,0 c 1.36879,0 2.05318,-0.60191 2.05322,-1.80572 l 0,-55.15699 92.59692,0 c 5.92986,6e-5 10.90864,0.50096 14.93633,1.50272 4.02743,1.00187 7.18267,2.63926 9.46572,4.91216 1.52179,1.8731 2.73864,4.31439 3.65056,7.32387 0.91162,3.00957 1.3675,6.71995 1.36765,11.13117 -1.5e-4,1.33851 -0.0767,3.21053 -0.22968,5.61608 -0.15328,2.40561 -0.38063,5.34678 -0.68209,8.82353 -0.45951,7.08821 -0.68919,12.37069 -0.68904,15.84746 -1.5e-4,1.20381 0.68425,1.80572 2.05322,1.80572 z m -23.26059,-92.26294 c -1.4e-4,11.89945 -9.04592,17.84913 -27.13736,17.84905 l -87.5787,0 0,-35.09823 88.49048,0 c 17.48358,1.1e-4 26.22544,5.74983 26.22558,17.24918 z" />
    <path
       inkscape:connector-curvature="0"
       id="path3022"
       style="font-style:normal;font-variant:normal;font-weight:normal;font-stretch:normal;font-size:72px;line-height:125%;font-family:Acens;-inkscape-font-specification:Acens;letter-spacing:0px;word-spacing:0px;fill:#000000;fill-opacity:1;stroke:none"
       d="m 725.77207,483.78878 c 1.06235,0 1.59364,-0.60191 1.59385,-1.80572 l 0,-123.14987 c -2.1e-4,-1.33835 -0.5315,-2.00758 -1.59385,-2.00771 l -31.01413,0 c -0.76115,1.3e-4 -1.29475,0.13275 -1.60081,0.39787 L 624.28016,460.72457 557.45642,357.02748 c -5e-5,1.2e-4 -0.0754,-0.0335 -0.2262,-0.101 -0.15084,-0.0672 -0.45593,-0.10087 -0.91525,-0.101 l -32.83766,0 c -1.36883,1.3e-4 -2.05324,0.66936 -2.05322,2.00771 l 0,123.14987 c -2e-5,1.20381 0.68439,1.80572 2.05322,1.80572 l 14.82497,0 c 1.36879,0 2.0532,-0.60191 2.05322,-1.80572 l 0,-111.72183 4.09949,0 73.6655,113.32555 c -1.1e-4,0 0.0765,0.0337 0.22969,0.10098 0.15302,0.0673 0.38269,0.10102 0.68904,0.10102 l 9.80676,0 c 0.75621,0 1.28749,-0.13467 1.59386,-0.404 l 74.34758,-113.12355 4.33613,0 0,111.72183 c -1.9e-4,1.20381 0.68421,1.80572 2.05323,1.80572 z" />
  </g>
  <ellipse
     style="color:#000000;display:inline;overflow:visible;visibility:visible;fill:#89b5d4;fill-opacity:1;fill-rule:nonzero;stroke:none;stroke-width:20;marker:none;enable-background:accumulate"
     id="path3904"
     cx="38.726589"
     cy="76.273712"
     rx="27.506792"
     ry="6.876698"
     inkscape:export-filename="C:\Users\Optim\Desktop\optimorm.png"
     inkscape:export-xdpi="90"
     inkscape:export-ydpi="90" />
  <path
     style="color:#000000;display:inline;overflow:visible;visibility:visible;fill:#89b5d4;fill-opacity:1;fill-rule:nonzero;stroke:none;stroke-width:20;marker:none;enable-background:accumulate"
     d="m 11.221443,83.673508 0,5.899584 c 1.43251,0.584918 3.055785,1.086991 4.872187,1.541099 5.934125,1.483521 13.869216,2.356653 22.634488,2.356653 8.76527,0 16.695068,-0.873132 22.629192,-2.356653 1.811793,-0.452948 3.431741,-0.952776 4.861596,-1.535801 l 0,-5.894286 c -0.06154,0.03907 -0.114731,0.07479 -0.185355,0.116502 -1.210183,0.7153 -3.297833,1.516898 -5.957838,2.181896 -5.32001,1.330005 -12.939633,2.197783 -21.347595,2.197783 -8.407964,0 -16.022288,-0.867778 -21.342299,-2.197783 -2.660007,-0.664998 -4.75295,-1.466596 -5.963134,-2.181896 -0.07757,-0.04584 -0.13433,-0.08444 -0.201242,-0.127098 z"
     id="rect3912"
     inkscape:connector-curvature="0"
     sodipodi:nodetypes="ccsssccsssssc"
     inkscape:export-filename="C:\Users\Optim\Desktop\optimorm.png"
     inkscape:export-xdpi="90"
     inkscape:export-ydpi="90" />
  <path
     sodipodi:nodetypes="ccsssccsssssc"
     inkscape:connector-curvature="0"
     id="path3928"
     d="m 11.221443,93.502616 0,5.899586 c 1.43251,0.584918 3.055785,1.425928 4.872187,1.880038 5.934125,1.48353 13.869216,2.35665 22.634488,2.35665 8.76527,0 16.695068,-0.87312 22.629192,-2.35665 1.811793,-0.45295 3.431741,-1.291714 4.861596,-1.874739 l 0,-5.894288 c -0.06154,0.03907 -0.114731,0.07479 -0.185355,0.11651 -1.210183,0.715292 -3.297833,1.855824 -5.957838,2.520822 -5.32001,1.330007 -12.939633,2.197784 -21.347595,2.197784 -8.407964,0 -16.022288,-1.206711 -21.342299,-2.536718 -2.660007,-0.664998 -4.75295,-1.466596 -5.963134,-2.181888 -0.07757,-0.04584 -0.13433,-0.08444 -0.201242,-0.127107 z"
     style="color:#000000;display:inline;overflow:visible;visibility:visible;fill:#89b5d4;fill-opacity:1;fill-rule:nonzero;stroke:none;stroke-width:20;marker:none;enable-background:accumulate"
     inkscape:export-filename="C:\Users\Optim\Desktop\optimorm.png"
     inkscape:export-xdpi="90"
     inkscape:export-ydpi="90" />
  <path
     sodipodi:nodetypes="ccasaccsasasc"
     inkscape:connector-curvature="0"
     id="path3932"
     d="m 11.221443,112.48297 0,5.89958 c 1.43251,0.58492 3.157279,1.72525 4.872187,2.21897 7.315203,2.10603 13.869216,3.03452 22.634488,3.03452 8.76527,0 15.315618,-0.92915 22.629192,-3.03452 1.71113,-0.49259 3.431741,-1.63065 4.861596,-2.21367 l 0,-5.89429 c -0.06154,0.0391 -0.114731,0.0748 -0.185355,0.1165 -1.210183,0.71531 -3.84739,2.22835 -5.957838,2.85977 -6.878862,2.05806 -12.939633,2.87565 -21.347595,2.87565 -8.407964,0 -14.464792,-0.81917 -21.342299,-2.87565 -2.112071,-0.63154 -4.75295,-2.14446 -5.963134,-2.85977 -0.07757,-0.0458 -0.13433,-0.0844 -0.201242,-0.12709 z"
     style="color:#000000;display:inline;overflow:visible;visibility:visible;fill:#89b5d4;fill-opacity:1;fill-rule:nonzero;stroke:none;stroke-width:20;marker:none;enable-background:accumulate"
     inkscape:export-filename="C:\Users\Optim\Desktop\optimorm.png"
     inkscape:export-xdpi="90"
     inkscape:export-ydpi="90" />
  <path
     style="color:#000000;display:inline;overflow:visible;visibility:visible;fill:#89b5d4;fill-opacity:1;fill-rule:nonzero;stroke:none;stroke-width:20;marker:none;enable-background:accumulate"
     d="m 11.221443,102.99279 0,5.89959 c 1.43251,0.58491 3.185859,1.44805 4.872187,1.88003 7.374232,1.88899 13.869216,3.03452 22.634488,3.03452 8.76527,0 15.256479,-1.14666 22.629192,-3.03452 1.682562,-0.43085 3.431741,-1.29171 4.861596,-1.87473 l 0,-5.89429 c -0.06154,0.0391 -0.114731,0.0748 -0.185355,0.11651 -1.210183,0.71529 -3.877899,1.95171 -5.957838,2.52082 -6.925559,1.89499 -12.939633,2.87565 -21.347595,2.87565 -8.407964,0 -14.418157,-0.98211 -21.342299,-2.87565 -2.081589,-0.56924 -4.75295,-1.80553 -5.963134,-2.52082 -0.07757,-0.0458 -0.13433,-0.0844 -0.201242,-0.12711 z"
     id="path3934"
     inkscape:connector-curvature="0"
     sodipodi:nodetypes="ccasaccsasasc"
     inkscape:export-filename="C:\Users\Optim\Desktop\optimorm.png"
     inkscape:export-xdpi="90"
     inkscape:export-ydpi="90" />
  <rect
     style="opacity:1;fill:#f9f9f9;fill-opacity:1;fill-rule:evenodd;stroke:none;stroke-width:1.76986182;stroke-linecap:butt;stroke-linejoin:miter;stroke-miterlimit:4;stroke-dasharray:none;stroke-dashoffset:0;stroke-opacity:1"
     id="rect4155"
     width="190.23016"
     height="190.23016"
     x="240.88495"
     y="0.8849116"
     inkscape:export-filename="C:\Users\Optim\Desktop\flowRoot4172.png"
     inkscape:export-xdpi="90"
     inkscape:export-ydpi="90" />
  <flowRoot
     xml:space="preserve"
     id="flowRoot4172"
     style="font-style:normal;font-weight:normal;font-size:40px;line-height:125%;font-family:sans-serif;text-align:center;letter-spacing:0px;word-spacing:0px;text-anchor:middle;fill:#cccccc;fill-opacity:1;stroke:none;stroke-width:1px;stroke-linecap:butt;stroke-linejoin:miter;stroke-opacity:1;"
     transform="matrix(0.80000008,0,0,0.80000008,0.3054657,21.836825)"
     inkscape:export-filename="C:\Users\Optim\Desktop\flowRoot4172.png"
     inkscape:export-xdpi="90"
     inkscape:export-ydpi="90"><flowRegion
       id="flowRegion4174"><rect
         id="rect4176"
         width="216.0601"
         height="94.62886"
         x="310.68896"
         y="63.869987"
         style="text-align:center;text-anchor:middle;fill:#cccccc;" /></flowRegion><flowPara
       id="flowPara4178"
       style="font-style:normal;font-variant:normal;font-weight:500;font-stretch:normal;font-family:Marlett;-inkscape-font-specification:'Marlett Medium';fill:#cccccc;">No image</flowPara></flowRoot></svg>
